<svg xmlns="http://www.w3.org/2000/svg" viewBox="0 0 62 10" fill="currentColor" shape-rendering="crispEdges" role="img" aria-label="Terminus">
  <title>Terminus</title>
  <rect x="2" y="0" width="1" height="1" />
  <rect x="3" y="0" width="1" height="1" />
  <rect x="2" y="1" width="1" height="1" />
  <rect x="3" y="1" width="1" height="1" />
  <rect x="0" y="2" width="1" height="1" />
  <rect x="1" y="2" width="1" height="1" />
  <rect x="2" y="2" width="1" height="1" />
  <rect x="3" y="2" width="1" height="1" />
  <rect x="4" y="2" width="1" height="1" />
  <rect x="5" y="2" width="1" height="1" />
  <rect x="0" y="3" width="1" height="1" />
  <rect x="1" y="3" width="1" height="1" />
  <rect x="2" y="3" width="1" height="1" />
  <rect x="3" y="3" width="1" height="1" />
  <rect x="4" y="3" width="1" height="1" />
  <rect x="5" y="3" width="1" height="1" />
  <rect x="2" y="4" width="1" height="1" />
  <rect x="3" y="4" width="1" height="1" />
  <rect x="2" y="5" width="1" height="1" />
  <rect x="3" y="5" width="1" height="1" />
  <rect x="2" y="6" width="1" height="1" />
  <rect x="3" y="6" width="1" height="1" />
  <rect x="2" y="7" width="1" height="1" />
  <rect x="3" y="7" width="1" height="1" />
  <rect x="2" y="8" width="1" height="1" />
  <rect x="3" y="8" width="1" height="1" />
  <rect x="4" y="8" width="1" height="1" />
  <rect x="5" y="8" width="1" height="1" />
  <rect x="2" y="9" width="1" height="1" />
  <rect x="3" y="9" width="1" height="1" />
  <rect x="4" y="9" width="1" height="1" />
  <rect x="5" y="9" width="1" height="1" />
  <rect x="8" y="0" width="1" height="1" />
  <rect x="9" y="0" width="1" height="1" />
  <rect x="10" y="0" width="1" height="1" />
  <rect x="11" y="0" width="1" height="1" />
  <rect x="12" y="0" width="1" height="1" />
  <rect x="13" y="0" width="1" height="1" />
  <rect x="8" y="1" width="1" height="1" />
  <rect x="9" y="1" width="1" height="1" />
  <rect x="10" y="1" width="1" height="1" />
  <rect x="11" y="1" width="1" height="1" />
  <rect x="12" y="1" width="1" height="1" />
  <rect x="13" y="1" width="1" height="1" />
  <rect x="8" y="2" width="1" height="1" />
  <rect x="9" y="2" width="1" height="1" />
  <rect x="12" y="2" width="1" height="1" />
  <rect x="13" y="2" width="1" height="1" />
  <rect x="8" y="3" width="1" height="1" />
  <rect x="9" y="3" width="1" height="1" />
  <rect x="12" y="3" width="1" height="1" />
  <rect x="13" y="3" width="1" height="1" />
  <rect x="8" y="4" width="1" height="1" />
  <rect x="9" y="4" width="1" height="1" />
  <rect x="10" y="4" width="1" height="1" />
  <rect x="11" y="4" width="1" height="1" />
  <rect x="12" y="4" width="1" height="1" />
  <rect x="13" y="4" width="1" height="1" />
  <rect x="8" y="5" width="1" height="1" />
  <rect x="9" y="5" width="1" height="1" />
  <rect x="10" y="5" width="1" height="1" />
  <rect x="11" y="5" width="1" height="1" />
  <rect x="12" y="5" width="1" height="1" />
  <rect x="13" y="5" width="1" height="1" />
  <rect x="8" y="6" width="1" height="1" />
  <rect x="9" y="6" width="1" height="1" />
  <rect x="8" y="7" width="1" height="1" />
  <rect x="9" y="7" width="1" height="1" />
  <rect x="8" y="8" width="1" height="1" />
  <rect x="9" y="8" width="1" height="1" />
  <rect x="10" y="8" width="1" height="1" />
  <rect x="11" y="8" width="1" height="1" />
  <rect x="12" y="8" width="1" height="1" />
  <rect x="13" y="8" width="1" height="1" />
  <rect x="8" y="9" width="1" height="1" />
  <rect x="9" y="9" width="1" height="1" />
  <rect x="10" y="9" width="1" height="1" />
  <rect x="11" y="9" width="1" height="1" />
  <rect x="12" y="9" width="1" height="1" />
  <rect x="13" y="9" width="1" height="1" />
  <rect x="16" y="0" width="1" height="1" />
  <rect x="17" y="0" width="1" height="1" />
  <rect x="18" y="0" width="1" height="1" />
  <rect x="19" y="0" width="1" height="1" />
  <rect x="16" y="1" width="1" height="1" />
  <rect x="17" y="1" width="1" height="1" />
  <rect x="18" y="1" width="1" height="1" />
  <rect x="19" y="1" width="1" height="1" />
  <rect x="16" y="2" width="1" height="1" />
  <rect x="17" y="2" width="1" height="1" />
  <rect x="20" y="2" width="1" height="1" />
  <rect x="21" y="2" width="1" height="1" />
  <rect x="16" y="3" width="1" height="1" />
  <rect x="17" y="3" width="1" height="1" />
  <rect x="20" y="3" width="1" height="1" />
  <rect x="21" y="3" width="1" height="1" />
  <rect x="16" y="4" width="1" height="1" />
  <rect x="17" y="4" width="1" height="1" />
  <rect x="16" y="5" width="1" height="1" />
  <rect x="17" y="5" width="1" height="1" />
  <rect x="16" y="6" width="1" height="1" />
  <rect x="17" y="6" width="1" height="1" />
  <rect x="16" y="7" width="1" height="1" />
  <rect x="17" y="7" width="1" height="1" />
  <rect x="16" y="8" width="1" height="1" />
  <rect x="17" y="8" width="1" height="1" />
  <rect x="16" y="9" width="1" height="1" />
  <rect x="17" y="9" width="1" height="1" />
  <rect x="24" y="2" width="1" height="1" />
  <rect x="25" y="2" width="1" height="1" />
  <rect x="26" y="2" width="1" height="1" />
  <rect x="27" y="2" width="1" height="1" />
  <rect x="28" y="2" width="1" height="1" />
  <rect x="29" y="2" width="1" height="1" />
  <rect x="24" y="3" width="1" height="1" />
  <rect x="25" y="3" width="1" height="1" />
  <rect x="26" y="3" width="1" height="1" />
  <rect x="27" y="3" width="1" height="1" />
  <rect x="28" y="3" width="1" height="1" />
  <rect x="29" y="3" width="1" height="1" />
  <rect x="24" y="4" width="1" height="1" />
  <rect x="25" y="4" width="1" height="1" />
  <rect x="26" y="4" width="1" height="1" />
  <rect x="27" y="4" width="1" height="1" />
  <rect x="28" y="4" width="1" height="1" />
  <rect x="29" y="4" width="1" height="1" />
  <rect x="24" y="5" width="1" height="1" />
  <rect x="25" y="5" width="1" height="1" />
  <rect x="26" y="5" width="1" height="1" />
  <rect x="27" y="5" width="1" height="1" />
  <rect x="28" y="5" width="1" height="1" />
  <rect x="29" y="5" width="1" height="1" />
  <rect x="24" y="6" width="1" height="1" />
  <rect x="25" y="6" width="1" height="1" />
  <rect x="28" y="6" width="1" height="1" />
  <rect x="29" y="6" width="1" height="1" />
  <rect x="24" y="7" width="1" height="1" />
  <rect x="25" y="7" width="1" height="1" />
  <rect x="28" y="7" width="1" height="1" />
  <rect x="29" y="7" width="1" height="1" />
  <rect x="24" y="8" width="1" height="1" />
  <rect x="25" y="8" width="1" height="1" />
  <rect x="28" y="8" width="1" height="1" />
  <rect x="29" y="8" width="1" height="1" />
  <rect x="24" y="9" width="1" height="1" />
  <rect x="25" y="9" width="1" height="1" />
  <rect x="28" y="9" width="1" height="1" />
  <rect x="29" y="9" width="1" height="1" />
  <rect x="34" y="0" width="1" height="1" />
  <rect x="35" y="0" width="1" height="1" />
  <rect x="34" y="1" width="1" height="1" />
  <rect x="35" y="1" width="1" height="1" />
  <rect x="34" y="4" width="1" height="1" />
  <rect x="35" y="4" width="1" height="1" />
  <rect x="34" y="5" width="1" height="1" />
  <rect x="35" y="5" width="1" height="1" />
  <rect x="34" y="6" width="1" height="1" />
  <rect x="35" y="6" width="1" height="1" />
  <rect x="34" y="7" width="1" height="1" />
  <rect x="35" y="7" width="1" height="1" />
  <rect x="34" y="8" width="1" height="1" />
  <rect x="35" y="8" width="1" height="1" />
  <rect x="34" y="9" width="1" height="1" />
  <rect x="35" y="9" width="1" height="1" />
  <rect x="40" y="2" width="1" height="1" />
  <rect x="41" y="2" width="1" height="1" />
  <rect x="42" y="2" width="1" height="1" />
  <rect x="43" y="2" width="1" height="1" />
  <rect x="40" y="3" width="1" height="1" />
  <rect x="41" y="3" width="1" height="1" />
  <rect x="42" y="3" width="1" height="1" />
  <rect x="43" y="3" width="1" height="1" />
  <rect x="40" y="4" width="1" height="1" />
  <rect x="41" y="4" width="1" height="1" />
  <rect x="44" y="4" width="1" height="1" />
  <rect x="45" y="4" width="1" height="1" />
  <rect x="40" y="5" width="1" height="1" />
  <rect x="41" y="5" width="1" height="1" />
  <rect x="44" y="5" width="1" height="1" />
  <rect x="45" y="5" width="1" height="1" />
  <rect x="40" y="6" width="1" height="1" />
  <rect x="41" y="6" width="1" height="1" />
  <rect x="44" y="6" width="1" height="1" />
  <rect x="45" y="6" width="1" height="1" />
  <rect x="40" y="7" width="1" height="1" />
  <rect x="41" y="7" width="1" height="1" />
  <rect x="44" y="7" width="1" height="1" />
  <rect x="45" y="7" width="1" height="1" />
  <rect x="40" y="8" width="1" height="1" />
  <rect x="41" y="8" width="1" height="1" />
  <rect x="44" y="8" width="1" height="1" />
  <rect x="45" y="8" width="1" height="1" />
  <rect x="40" y="9" width="1" height="1" />
  <rect x="41" y="9" width="1" height="1" />
  <rect x="44" y="9" width="1" height="1" />
  <rect x="45" y="9" width="1" height="1" />
  <rect x="48" y="2" width="1" height="1" />
  <rect x="49" y="2" width="1" height="1" />
  <rect x="52" y="2" width="1" height="1" />
  <rect x="53" y="2" width="1" height="1" />
  <rect x="48" y="3" width="1" height="1" />
  <rect x="49" y="3" width="1" height="1" />
  <rect x="52" y="3" width="1" height="1" />
  <rect x="53" y="3" width="1" height="1" />
  <rect x="48" y="4" width="1" height="1" />
  <rect x="49" y="4" width="1" height="1" />
  <rect x="52" y="4" width="1" height="1" />
  <rect x="53" y="4" width="1" height="1" />
  <rect x="48" y="5" width="1" height="1" />
  <rect x="49" y="5" width="1" height="1" />
  <rect x="52" y="5" width="1" height="1" />
  <rect x="53" y="5" width="1" height="1" />
  <rect x="48" y="6" width="1" height="1" />
  <rect x="49" y="6" width="1" height="1" />
  <rect x="52" y="6" width="1" height="1" />
  <rect x="53" y="6" width="1" height="1" />
  <rect x="48" y="7" width="1" height="1" />
  <rect x="49" y="7" width="1" height="1" />
  <rect x="52" y="7" width="1" height="1" />
  <rect x="53" y="7" width="1" height="1" />
  <rect x="48" y="8" width="1" height="1" />
  <rect x="49" y="8" width="1" height="1" />
  <rect x="50" y="8" width="1" height="1" />
  <rect x="51" y="8" width="1" height="1" />
  <rect x="52" y="8" width="1" height="1" />
  <rect x="53" y="8" width="1" height="1" />
  <rect x="48" y="9" width="1" height="1" />
  <rect x="49" y="9" width="1" height="1" />
  <rect x="50" y="9" width="1" height="1" />
  <rect x="51" y="9" width="1" height="1" />
  <rect x="52" y="9" width="1" height="1" />
  <rect x="53" y="9" width="1" height="1" />
  <rect x="56" y="0" width="1" height="1" />
  <rect x="57" y="0" width="1" height="1" />
  <rect x="58" y="0" width="1" height="1" />
  <rect x="59" y="0" width="1" height="1" />
  <rect x="60" y="0" width="1" height="1" />
  <rect x="61" y="0" width="1" height="1" />
  <rect x="56" y="1" width="1" height="1" />
  <rect x="57" y="1" width="1" height="1" />
  <rect x="58" y="1" width="1" height="1" />
  <rect x="59" y="1" width="1" height="1" />
  <rect x="60" y="1" width="1" height="1" />
  <rect x="61" y="1" width="1" height="1" />
  <rect x="56" y="2" width="1" height="1" />
  <rect x="57" y="2" width="1" height="1" />
  <rect x="56" y="3" width="1" height="1" />
  <rect x="57" y="3" width="1" height="1" />
  <rect x="56" y="4" width="1" height="1" />
  <rect x="57" y="4" width="1" height="1" />
  <rect x="58" y="4" width="1" height="1" />
  <rect x="59" y="4" width="1" height="1" />
  <rect x="60" y="4" width="1" height="1" />
  <rect x="61" y="4" width="1" height="1" />
  <rect x="56" y="5" width="1" height="1" />
  <rect x="57" y="5" width="1" height="1" />
  <rect x="58" y="5" width="1" height="1" />
  <rect x="59" y="5" width="1" height="1" />
  <rect x="60" y="5" width="1" height="1" />
  <rect x="61" y="5" width="1" height="1" />
  <rect x="60" y="6" width="1" height="1" />
  <rect x="61" y="6" width="1" height="1" />
  <rect x="60" y="7" width="1" height="1" />
  <rect x="61" y="7" width="1" height="1" />
  <rect x="56" y="8" width="1" height="1" />
  <rect x="57" y="8" width="1" height="1" />
  <rect x="58" y="8" width="1" height="1" />
  <rect x="59" y="8" width="1" height="1" />
  <rect x="60" y="8" width="1" height="1" />
  <rect x="61" y="8" width="1" height="1" />
  <rect x="56" y="9" width="1" height="1" />
  <rect x="57" y="9" width="1" height="1" />
  <rect x="58" y="9" width="1" height="1" />
  <rect x="59" y="9" width="1" height="1" />
  <rect x="60" y="9" width="1" height="1" />
  <rect x="61" y="9" width="1" height="1" />
</svg>
